#!OML:ASF \\sashay\E\basketball\basketball\Project 1\Capture day 1\Session 1\Subject.ASF
:FULLY-SPECIFIED
:DEGREES
214
root -15.034 14.6587 1.12867 -175.822 -60.4059 188.637
lowerback 19.7949 3.74834 -3.93528
upperback 6.99578 3.55131 1.03543
thorax -3.80305 1.43287 2.54385
lowerneck -8.5379 0.703299 -12.1741
upperneck -12.3138 2.37289 17.1306
head -2.46344 0.994987 7.42851
rclavicle -5.54609e-014 1.15295e-014
rhumerus -26.0422 -31.1236 -37.84
rradius 86.5826
rwrist -11.5185
rhand -35.1554 55.2582
rfingers 7.12502
rthumb -8.29474 25.441
lclavicle -5.54609e-014 1.15295e-014
lhumerus -23.4612 18.9181 26.6516
lradius 90.724
lwrist 9.61366
lhand -37.468 15.8659
lfingers 7.12502
lthumb -10.5261 45.5823
rfemur 9.53919 -10.1621 1.94519
rtibia 40.1545
rfoot 7.02296 -7.10613
rtoes -41.6065
lfemur -53.7148 22.8935 -20.6524
ltibia 64.1453
lfoot -15.0635 1.7679
ltoes -16.1124
215
root -15.5761 14.7055 1.14986 -175.985 -60.4332 188.174
lowerback 20.0465 3.63683 -4.22187
upperback 7.43447 3.29611 1.196
thorax -3.46594 1.26634 2.93909
lowerneck -9.23492 0.799966 -12.2229
upperneck -12.5803 2.53314 16.7803
head -2.45678 1.09295 7.33321
rclavicle -3.08116e-014 -3.00165e-014
rhumerus -25.923 -32.1831 -38.3462
rradius 84.4246
rwrist -12.2774
rhand -36.3958 54.8074
rfingers 7.12502
rthumb -9.4917 25.0412
lclavicle -3.08116e-014 -3.00165e-014
lhumerus -24.9673 19.2989 26.5054
lradius 89.4167
lwrist 9.11769
lhand -37.8915 15.1394
lfingers 7.12502
lthumb -10.9346 44.8346
rfemur 7.23312 -13.3856 1.70603
rtibia 44.2909
rfoot 6.25719 -3.41173
rtoes -51.3468
lfemur -51.0776 22.7005 -21.1894
ltibia 64.7052
lfoot -17.1847 1.92139
ltoes -16.6124
216
root -16.1359 14.771 1.17297 -176.175 -60.1704 187.688
lowerback 20.5584 3.4623 -4.58318
upperback 7.52781 2.95979 1.40632
thorax -3.62602 1.0842 3.43631
lowerneck -8.76694 1.24473 -12.9812
upperneck -13.0495 3.19231 16.7051
head -2.78499 1.42951 7.44814
rclavicle -1.09332e-014 2.92213e-014
rhumerus -25.6464 -32.0407 -39.1062
rradius 82.4277
rwrist -13.3348
rhand -37.5487 53.8177
rfingers 7.12502
rthumb -10.6039 24.1052
lclavicle -1.09332e-014 2.92213e-014
lhumerus -27.2002 19.1946 26.2827
lradius 87.7479
lwrist 9.08027
lhand -38.4422 14.2839
lfingers 7.12502
lthumb -11.4658 43.9503
rfemur 4.80739 -15.5765 1.51052
rtibia 48.0441
rfoot 3.44538 -3.55906
rtoes -50.7146
lfemur -48.2062 23.0751 -21.7831
ltibia 65.1682
lfoot -18.5981 2.02608
ltoes -18.5227
217
root -16.6937 14.8287 1.20677 -176.111 -59.571 187.184
lowerback 20.5591 3.28744 -4.73511
upperback 7.70796 2.68353 1.51088
thorax -3.41695 0.926132 3.70485
lowerneck -10.1639 1.32418 -12.311
upperneck -11.8506 3.18955 15.3217
head -2.20316 1.52009 6.86571
rclavicle -7.17613e-014 1.98785e-016
rhumerus -24.8534 -31.9512 -40.2523
rradius 80.1072
rwrist -13.9942
rhand -38.2492 53.0835
rfingers 7.12502
rthumb -11.2796 23.4068
lclavicle -7.17613e-014 1.98785e-016
lhumerus -29.2262 19.2705 26.3278
lradius 85.7948
lwrist 9.65288
lhand -38.5088 13.2136
lfingers 7.12502
lthumb -11.53 42.8765
rfemur 2.02584 -17.6711 1.5769
rtibia 51.4847
rfoot 0.955501 -3.59757
rtoes -50.5467
lfemur -45.7274 23.6627 -22.3975
ltibia 65.7715
lfoot -19.0161 2.02388
ltoes -19.1762
218
root -17.2558 14.8945 1.24644 -175.838 -58.6765 186.768
lowerback 20.2938 3.12884 -4.71654
upperback 7.67825 2.49976 1.54124
thorax -3.29598 0.835358 3.77602
lowerneck -11.2797 1.41315 -11.3451
upperneck -10.4966 3.14547 13.6278
head -1.61346 1.56755 6.14567
rclavicle 3.53837e-014 -1.78906e-014
rhumerus -24.2751 -32.1736 -41.1026
rradius 77.3032
rwrist -12.6402
rhand -37.345 52.5557
rfingers 7.12502
rthumb -10.4074 22.8333
lclavicle 3.53837e-014 -1.78906e-014
lhumerus -31.3015 18.9315 26.5526
lradius 83.7849
lwrist 10.7494
lhand -38.0498 12.6619
lfingers 7.12502
lthumb -11.0873 42.349
rfemur -1.31128 -19.3608 2.2
rtibia 54.6008
rfoot -1.34958 -4.1015
rtoes -49.6582
lfemur -43.6164 24.4197 -22.9748
ltibia 66.4084
lfoot -19.5676 1.05216
ltoes -14.6722
219
root -17.8374 14.9802 1.2809 -175.256 -57.6914 185.964
lowerback 19.799 3.02336 -4.65064
upperback 7.69057 2.39981 1.42891
thorax -3.01297 0.784361 3.65128
lowerneck -11.9563 1.40875 -10.6633
upperneck -9.35593 3.01724 12.1724
head -1.14918 1.54938 5.56364
rclavicle 8.84592e-015 -1.92821e-014
rhumerus -23.8411 -32.2754 -42.0485
rradius 74.6669
rwrist -11.4081
rhand -36.963 52.6486
rfingers 7.12502
rthumb -10.0389 22.908
lclavicle 8.84592e-015 -1.92821e-014
lhumerus -32.9237 18.2066 27.2234
lradius 81.5119
lwrist 11.8845
lhand -37.7456 12.8273
lfingers 7.12502
lthumb -10.7939 42.5299
rfemur -4.65567 -20.7562 2.90381
rtibia 57.2368
rfoot -3.83553 -4.77819
rtoes -48.6607
lfemur -41.3592 25.3098 -23.6653
ltibia 67.0068
lfoot -19.1663 0.585646
ltoes -19.2643
220
root -18.3969 15.0783 1.31385 -174.818 -56.8343 185.245
lowerback 19.6006 2.94366 -4.53786
upperback 7.6874 2.32179 1.33683
thorax -2.89996 0.74619 3.51008
lowerneck -8.16472 2.09725 -14.2021
upperneck -12.1759 4.22286 14.3615
head -2.81345 2.10616 6.84614
rclavicle 4.8901e-014 -2.28602e-014
rhumerus -23.3405 -32.4345 -43.1026
rradius 72.1046
rwrist -9.60886
rhand -36.8441 52.6508
rfingers 7.12502
rthumb -9.92425 22.9047
lclavicle 4.8901e-014 -2.28602e-014
lhumerus -33.9512 17.1436 28.2252
lradius 78.8034
lwrist 13.389
lhand -37.3961 13.3568
lfingers 7.12502
lthumb -10.4567 43.0767
rfemur -8.20317 -22.0459 4.14652
rtibia 59.4877
rfoot -5.89008 -5.79928
rtoes -48.5836
lfemur -39.2547 25.9734 -24.1373
ltibia 67.5691
lfoot -16.9265 0.0474937
ltoes -24.4885
221
root -18.9537 15.1739 1.34478 -174.425 -56.034 184.582
lowerback 19.4633 2.82693 -4.39303
upperback 7.63569 2.20295 1.26281
thorax -2.86666 0.692769 3.3771
lowerneck -7.82998 2.30109 -14.2922
upperneck -11.8479 4.41152 13.4344
head -2.7975 2.23818 6.54234
rclavicle -8.43841e-014 2.62396e-014
rhumerus -23.0447 -32.3667 -44.1795
rradius 69.8523
rwrist -7.96737
rhand -36.6762 52.811
rfingers 7.12502
rthumb -9.76223 23.0573
lclavicle -8.43841e-014 2.62396e-014
lhumerus -34.8675 15.6802 29.3188
lradius 75.9731
lwrist 15.6536
lhand -36.6466 14.2712
lfingers 7.12502
lthumb -9.73366 44.0263
rfemur -11.7222 -23.221 5.65996
rtibia 61.2594
rfoot -7.71401 -6.79919
rtoes -48.6228
lfemur -37.3781 26.5866 -24.488
ltibia 68.1492
lfoot -14.2458 -0.621565
ltoes -29.2212
222
root -19.5088 15.2705 1.37081 -173.645 -55.1824 183.383
lowerback 19.4482 2.73226 -4.64481
upperback 7.56289 2.03101 1.12673
thorax -2.92405 0.610063 3.41264
lowerneck -7.24166 2.66768 -14.4695
upperneck -11.6194 4.79445 12.3618
head -2.8776 2.46758 6.20075
rclavicle -4.87022e-014 2.39536e-014
rhumerus -22.768 -32.1324 -45.3353
rradius 67.7121
rwrist -6.32934
rhand -36.6664 52.7432
rfingers 7.12502
rthumb -9.75279 22.989
lclavicle -4.87022e-014 2.39536e-014
lhumerus -36.1651 14.106 30.5816
lradius 73.4781
lwrist 18.399
lhand -36.1214 15.4778
lfingers 7.12502
lthumb -9.22691 45.2559
rfemur -15.1362 -24.0201 7.02562
rtibia 62.6154
rfoot -9.45665 -7.73115
rtoes -48.2495
lfemur -35.6657 27.3094 -25.0736
ltibia 68.7307
lfoot -10.8757 -1.73744
ltoes -32.5239
223
root -20.0779 15.3723 1.39323 -173.102 -54.3276 182.338
lowerback 19.41 2.6009 -4.69417
upperback 7.58352 1.83632 0.944794
thorax -2.86013 0.510253 3.29023
lowerneck -9.63205 2.65857 -11.7272
upperneck -8.8859 4.56277 8.87796
head -1.55277 2.39039 4.67065
rclavicle -4.17448e-014 9.64106e-015
rhumerus -22.2823 -32.3406 -46.679
rradius 65.4211
rwrist -4.16866
rhand -36.5023 52.4618
rfingers 7.12502
rthumb -9.59447 22.7003
lclavicle -4.17448e-014 9.64106e-015
lhumerus -37.5099 12.6725 31.9575
lradius 71.1683
lwrist 21.426
lhand -35.0704 17.0813
lfingers 7.12502
lthumb -8.21273 46.9017
rfemur -18.3044 -24.5853 8.55118
rtibia 63.5015
rfoot -10.6935 -8.84437
rtoes -47.8611
lfemur -33.9362 27.9223 -25.3984
ltibia 69.1931
lfoot -6.39698 -3.36722
ltoes -32.1757
224
root -20.6498 15.4606 1.42014 -173.671 -53.6279 182.588
lowerback 19.4979 2.42644 -3.65349
upperback 7.5858 1.78144 0.888722
thorax -2.87037 0.495332 2.64978
lowerneck -8.6258 2.87021 -12.679
upperneck -9.18957 4.8415 8.70968
head -1.85463 2.55504 4.75162
rclavicle 7.4743e-014 -4.04527e-014
rhumerus -21.9532 -33.5927 -47.8479
rradius 62.9414
rwrist -1.42511
rhand -35.9759 52.4499
rfingers 7.12502
rthumb -9.08654 22.6656
lclavicle 7.4743e-014 -4.04527e-014
lhumerus -38.4734 10.8752 33.609
lradius 68.881
lwrist 24.6821
lhand -32.7655 18.4849
lfingers 7.12502
lthumb -5.98778 48.3803
rfemur -21.2507 -24.977 11.0777
rtibia 63.8811
rfoot -11.2643 -10.5513
rtoes -48.3166
lfemur -32.3361 28.2582 -24.7036
ltibia 69.5425
lfoot -0.620921 -4.96161
ltoes -28.7647
225
root -21.2204 15.5594 1.43698 -173.956 -53.0192 182.758
lowerback 19.497 2.29006 -2.71091
upperback 7.45927 1.78543 0.903257
thorax -2.98038 0.518173 2.12794
lowerneck -8.63774 2.90623 -12.5768
upperneck -8.49955 4.82429 7.33607
head -1.62501 2.56545 4.30663
rclavicle 5.24046e-014 -3.15571e-014
rhumerus -21.5226 -35.227 -48.721
rradius 60.0407
rwrist 1.21084
rhand -35.5953 52.884
rfingers 7.12502
rthumb -8.71932 23.0841
lclavicle 5.24046e-014 -3.15571e-014
lhumerus -39.5336 8.73139 35.5881
lradius 66.6629
lwrist 27.7838
lhand -30.8133 18.4213
lfingers 7.12502
lthumb -4.10288 48.3615
rfemur -24.2763 -24.9461 13.5701
rtibia 63.9439
rfoot -13.8773 -9.76546
rtoes -43.4637
lfemur -30.8842 28.3375 -23.9731
ltibia 69.5377
lfoot 6.16151 -6.21295
ltoes -22.6997
226
root -21.7901 15.6492 1.43574 -172.601 -52.2496 181.408
lowerback 18.9866 2.20768 -3.15533
upperback 7.26641 1.64148 0.75322
thorax -2.92262 0.459616 2.25764
lowerneck -6.35988 3.50122 -15.3373
upperneck -9.95171 5.61342 8.56248
head -2.61148 3.02134 5.07363
rclavicle -6.39838e-014 2.46741e-014
rhumerus -20.5628 -36.0126 -49.7663
rradius 57.0867
rwrist 2.75797
rhand -35.5673 52.8527
rfingers 7.12502
rthumb -8.69222 23.0516
lclavicle -6.39838e-014 2.46741e-014
lhumerus -41.3006 7.03641 37.5565
lradius 64.6422
lwrist 29.8641
lhand -29.3015 17.9346
lfingers 7.12502
lthumb -2.64291 47.898
rfemur -27.6441 -24.8181 15.2426
rtibia 63.6898
rfoot -15.6312 -9.05032
rtoes -39.6937
lfemur -29.7802 28.1799 -24.4121
ltibia 69.3506
lfoot 9.72066 -7.38543
ltoes -15.6308
227
root -22.3745 15.7485 1.43836 -172.466 -51.4164 181.203
lowerback 18.6834 2.03713 -2.91471
upperback 7.19866 1.47947 0.706575
thorax -2.82148 0.38736 2.10937
lowerneck -6.44154 3.87723 -15.2446
upperneck -9.42912 6.05398 7.41861
head -2.47072 3.25972 4.68812
rclavicle -5.05721e-014 -5.24295e-015
rhumerus -19.5229 -35.9636 -51.0036
rradius 54.7945
rwrist 2.90578
rhand -35.9062 50.2163
rfingers 7.12502
rthumb -9.01928 20.4291
lclavicle -5.05721e-014 -5.24295e-015
lhumerus -43.3688 5.69208 39.5486
lradius 62.779
lwrist 30.8579
lhand -27.9194 17.7354
lfingers 7.12502
lthumb -1.30805 47.7111
rfemur -30.1573 -24.3842 17.3388
rtibia 62.9249
rfoot -17.0594 -8.11983
rtoes -37.4285
lfemur -28.2327 28.0943 -23.9666
ltibia 69.1627
lfoot 11.1167 -9.24383
ltoes -13.8209
228
root -22.959 15.8596 1.43521 -172.596 -51.0055 181.696
lowerback 18.1906 1.63885 -2.29348
upperback 7.03921 1.11236 0.807457
thorax -2.70525 0.225731 1.94326
lowerneck -6.44249 4.27099 -15.2273
upperneck -9.12325 6.52706 6.52447
head -2.41265 3.50814 4.39367
rclavicle 1.07592e-014 2.67987e-014
rhumerus -18.522 -36.8564 -51.7699
rradius 51.8699
rwrist -0.0978337
rhand -30.2953 55.9256
rfingers 7.12502
rthumb -3.60261 25.9763
lclavicle 1.07592e-014 2.67987e-014
lhumerus -45.5389 4.25237 41.6731
lradius 60.9694
lwrist 31.6988
lhand -26.8695 17.7696
lfingers 7.12502
lthumb -0.294036 47.7491
rfemur -32.5814 -24.2785 20.1473
rtibia 61.7343
rfoot -18.8197 -6.47998
rtoes -32.8268
lfemur -27.2897 27.774 -23.2933
ltibia 69.1479
lfoot 10.4636 -10.3112
ltoes -16.7996
